<?xml version="1.0" encoding="UTF-8" standalone="no"?>
<!-- Created with Inkscape (http://www.inkscape.org/) -->

<svg
   width="210mm"
   height="297mm"
   viewBox="0 0 210 297"
   version="1.1"
   id="svg1"
   inkscape:version="1.4.2 (f4327f4, 2025-05-13)"
   sodipodi:docname="ikonki — kopia (5).svg"
   xml:space="preserve"
   xmlns:inkscape="http://www.inkscape.org/namespaces/inkscape"
   xmlns:sodipodi="http://sodipodi.sourceforge.net/DTD/sodipodi-0.dtd"
   xmlns="http://www.w3.org/2000/svg"
   xmlns:svg="http://www.w3.org/2000/svg"><sodipodi:namedview
     id="namedview1"
     pagecolor="#ffffff"
     bordercolor="#000000"
     borderopacity="0.25"
     inkscape:showpageshadow="2"
     inkscape:pageopacity="0.0"
     inkscape:pagecheckerboard="0"
     inkscape:deskcolor="#d1d1d1"
     inkscape:document-units="mm"
     showgrid="true"
     inkscape:zoom="2.8284271"
     inkscape:cx="105.71246"
     inkscape:cy="150.79052"
     inkscape:window-width="1920"
     inkscape:window-height="1017"
     inkscape:window-x="-8"
     inkscape:window-y="-8"
     inkscape:window-maximized="1"
     inkscape:current-layer="svg1"><inkscape:grid
       id="grid1"
       units="mm"
       originx="0"
       originy="0"
       spacingx="0.99999998"
       spacingy="1"
       empcolor="#0099e5"
       empopacity="0.30196078"
       color="#0099e5"
       opacity="0.14901961"
       empspacing="5"
       enabled="true"
       visible="true" /></sodipodi:namedview><defs
     id="defs1"><clipPath
       clipPathUnits="userSpaceOnUse"
       id="clipPath54"><path
         id="path54"
         style="stroke-width:0.0999999;stroke-linecap:square;paint-order:markers fill stroke;stop-color:#000000"
         d="m 1691.1994,-792.32001 h 1634.8919 v 92.82806 H 1691.1994 Z" /></clipPath><clipPath
       clipPathUnits="userSpaceOnUse"
       id="clipPath25"><rect
         style="fill:#ff0000;stroke:none;stroke-width:3;stroke-linecap:square;stroke-linejoin:miter;paint-order:stroke markers fill;stop-color:#000000"
         id="rect25-8"
         width="78"
         height="45.033199"
         x="763.61322"
         y="452.82422" /></clipPath><clipPath
       clipPathUnits="userSpaceOnUse"
       id="clipPath33"><rect
         style="fill:#000000;stroke:none;stroke-width:0.999995;stroke-linecap:butt;stroke-linejoin:bevel;paint-order:stroke markers fill;stop-color:#000000"
         id="rect33"
         width="46.19186"
         height="80.006783"
         x="74.999985"
         y="399.99661" /></clipPath><linearGradient
       id="linearGradient11"><stop
         style="stop-color:#fdf1f1;stop-opacity:1;"
         offset="0"
         id="stop14" /><stop
         style="stop-color:#fdf1f1;stop-opacity:0;"
         offset="1"
         id="stop15" /></linearGradient><linearGradient
       id="linearGradient11-1"><stop
         style="stop-color:#000000;stop-opacity:1;"
         offset="0"
         id="stop12" /><stop
         style="stop-color:#fdf1f1;stop-opacity:0;"
         offset="1"
         id="stop13" /></linearGradient><linearGradient
       id="linearGradient2"><stop
         style="stop-color:#fdf1f1;stop-opacity:1;"
         offset="0"
         id="stop4" /><stop
         style="stop-color:#fdf1f1;stop-opacity:0;"
         offset="1"
         id="stop5" /></linearGradient><linearGradient
       id="linearGradient2-1"><stop
         style="stop-color:#0e0e0e;stop-opacity:1;"
         offset="0.04"
         id="stop2" /><stop
         style="stop-color:#fdf1f1;stop-opacity:0;"
         offset="1"
         id="stop3" /></linearGradient></defs><g
     inkscape:groupmode="layer"
     id="layer7"
     inkscape:label="wrażliwośc"
     style="display:inline"
     sodipodi:insensitive="true"><path
       id="rect59"
       style="fill:#ffffff;stroke-width:0.2;stroke-linecap:round"
       d="m 29.693858,32.228865 0.400127,-0.100003 0.167739,-0.387133 0.309117,0.05788 0.09886,-0.352746 1.843224,2.686281 -0.197692,1.281271 -1.22967,-0.414416 z"
       sodipodi:nodetypes="ccccccccc" /><path
       id="rect58"
       style="fill:#ffffff;fill-opacity:1;stroke:none;stroke-width:0.2;stroke-linecap:round"
       d="m 27.488617,29.033707 0.145644,-1.164006 1.229159,0.385267 1.621488,2.744581 -0.148776,0.361844 -0.338298,-0.261842 -0.07283,0.633912 -0.553313,0.102833 -1.689426,-2.271681 z"
       sodipodi:nodetypes="cccccccccc" /><path
       id="path52"
       style="fill:#ffffff;fill-opacity:1;stroke:#000000;stroke-width:0.192662;stroke-linecap:round"
       d="m 29.981291,27.126044 c -0.12363,0.671301 -0.470533,2.331371 -0.470533,2.331371 0,0 -0.569135,-1.334174 -0.857196,-1.372494 -1.27239,-0.169237 -1.184563,-0.06296 -1.025376,-1.277072 0.08101,-0.617769 0.677938,-1.046742 1.32773,-0.958874 0.649792,0.08787 1.138223,0.664317 1.025375,1.277071 z"
       sodipodi:nodetypes="scsssss" /><path
       id="path52-0"
       style="fill:#ffffff;fill-opacity:1;stroke:#000000;stroke-width:0.192662;stroke-linecap:round"
       d="m 26.211546,30.059082 c 0.451014,0.0392 1.980833,0.103722 1.980833,0.103722 0,0 -0.760072,-0.719393 -0.703762,-1.129097 0.174776,-1.271641 0.253907,-1.158743 -0.958875,-1.32773 -0.617099,-0.08597 -1.189203,0.375584 -1.277071,1.025376 -0.08787,0.649792 0.338156,1.273781 0.958875,1.327729 z"
       sodipodi:nodetypes="scssss" /><path
       id="path52-3"
       style="fill:#ffffff;fill-opacity:1;stroke:#000000;stroke-width:0.192662;stroke-linecap:round"
       d="m 29.937868,36.058356 c 0.148415,-0.652142 0.532968,-2.24006 0.532968,-2.24006 0,0 0.540059,1.285747 0.833531,1.337295 1.26424,0.222064 1.180915,0.112228 0.971318,1.318654 -0.106665,0.613861 -0.72093,1.01761 -1.3665,0.902765 -0.645571,-0.114844 -1.109578,-0.711129 -0.971317,-1.318654 z"
       sodipodi:nodetypes="scssss" /><path
       id="path52-0-5"
       style="fill:#ffffff;fill-opacity:1;stroke:#000000;stroke-width:0.192662;stroke-linecap:round"
       d="m 32.477997,33.143888 c -0.286764,-0.02997 -0.671552,-0.01074 -0.671552,-0.01074 0,0 0.790267,0.629439 0.701359,1.122979 -0.227569,1.263262 -0.30193,1.147168 0.902765,1.3665 0.612985,0.111588 1.203809,-0.325747 1.318654,-0.971317 0.114844,-0.64557 -0.283082,-1.301738 -0.902765,-1.366499 z"
       sodipodi:nodetypes="scsssss" /><path
       style="fill:none;fill-opacity:1;fill-rule:nonzero;stroke:#000000;stroke-width:0.2;stroke-linecap:round;stroke-dasharray:none;stroke-opacity:1"
       d="m 28.192379,30.162804 1.179311,1.673492"
       id="path55"
       sodipodi:nodetypes="cc" /><path
       style="fill:none;fill-opacity:1;fill-rule:nonzero;stroke:#000000;stroke-width:0.2;stroke-linecap:round;stroke-dasharray:none;stroke-opacity:1"
       d="m 30.484908,30.99955 -0.97415,-1.542135"
       id="path56"
       sodipodi:nodetypes="cc" /><path
       style="fill:none;fill-opacity:1;fill-rule:nonzero;stroke:#000000;stroke-width:0.2;stroke-linecap:round;stroke-dasharray:none;stroke-opacity:1"
       d="m 29.693858,32.228865 0.776978,1.589431"
       id="path55-6"
       sodipodi:nodetypes="cc" /><path
       style="fill:none;fill-opacity:1;fill-rule:nonzero;stroke:#000000;stroke-width:0.2;stroke-linecap:round;stroke-dasharray:none;stroke-opacity:1"
       d="m 31.806445,33.133148 -1.136744,-1.686285 -0.09886,0.352746 -0.309117,-0.05788 -0.167739,0.387133 -0.400122,0.1"
       id="path56-8"
       sodipodi:nodetypes="cc" /><path
       style="fill:none;fill-opacity:1;fill-rule:nonzero;stroke:#000000;stroke-width:0.2;stroke-linecap:round;stroke-dasharray:none;stroke-opacity:1"
       d="m 30.484908,30.999549 -0.148776,0.361844 -0.338298,-0.261842 -0.07283,0.633912 -0.553313,0.102833"
       id="path58" /></g></svg>
