<?xml version="1.0" encoding="UTF-8" standalone="no"?>
<!-- Created with Inkscape (http://www.inkscape.org/) -->

<svg
   width="210mm"
   height="297mm"
   viewBox="0 0 210 297"
   version="1.1"
   id="svg1"
   inkscape:version="1.4.2 (f4327f4, 2025-05-13)"
   sodipodi:docname="ikonki — kopia (8).svg"
   xml:space="preserve"
   xmlns:inkscape="http://www.inkscape.org/namespaces/inkscape"
   xmlns:sodipodi="http://sodipodi.sourceforge.net/DTD/sodipodi-0.dtd"
   xmlns="http://www.w3.org/2000/svg"
   xmlns:svg="http://www.w3.org/2000/svg"><sodipodi:namedview
     id="namedview1"
     pagecolor="#ffffff"
     bordercolor="#000000"
     borderopacity="0.25"
     inkscape:showpageshadow="2"
     inkscape:pageopacity="0.0"
     inkscape:pagecheckerboard="0"
     inkscape:deskcolor="#d1d1d1"
     inkscape:document-units="mm"
     showgrid="true"
     inkscape:zoom="2.8284271"
     inkscape:cx="114.90485"
     inkscape:cy="175.89281"
     inkscape:window-width="1920"
     inkscape:window-height="1017"
     inkscape:window-x="-8"
     inkscape:window-y="-8"
     inkscape:window-maximized="1"
     inkscape:current-layer="svg1"><inkscape:grid
       id="grid1"
       units="mm"
       originx="0"
       originy="0"
       spacingx="0.99999998"
       spacingy="1"
       empcolor="#0099e5"
       empopacity="0.30196078"
       color="#0099e5"
       opacity="0.14901961"
       empspacing="5"
       enabled="true"
       visible="true" /></sodipodi:namedview><defs
     id="defs1"><clipPath
       clipPathUnits="userSpaceOnUse"
       id="clipPath54"><path
         id="path54"
         style="stroke-width:0.0999999;stroke-linecap:square;paint-order:markers fill stroke;stop-color:#000000"
         d="m 1691.1994,-792.32001 h 1634.8919 v 92.82806 H 1691.1994 Z" /></clipPath><clipPath
       clipPathUnits="userSpaceOnUse"
       id="clipPath25"><rect
         style="fill:#ff0000;stroke:none;stroke-width:3;stroke-linecap:square;stroke-linejoin:miter;paint-order:stroke markers fill;stop-color:#000000"
         id="rect25-8"
         width="78"
         height="45.033199"
         x="763.61322"
         y="452.82422" /></clipPath><clipPath
       clipPathUnits="userSpaceOnUse"
       id="clipPath33"><rect
         style="fill:#000000;stroke:none;stroke-width:0.999995;stroke-linecap:butt;stroke-linejoin:bevel;paint-order:stroke markers fill;stop-color:#000000"
         id="rect33"
         width="46.19186"
         height="80.006783"
         x="74.999985"
         y="399.99661" /></clipPath><linearGradient
       id="linearGradient11"><stop
         style="stop-color:#fdf1f1;stop-opacity:1;"
         offset="0"
         id="stop14" /><stop
         style="stop-color:#fdf1f1;stop-opacity:0;"
         offset="1"
         id="stop15" /></linearGradient><linearGradient
       id="linearGradient11-1"><stop
         style="stop-color:#000000;stop-opacity:1;"
         offset="0"
         id="stop12" /><stop
         style="stop-color:#fdf1f1;stop-opacity:0;"
         offset="1"
         id="stop13" /></linearGradient><linearGradient
       id="linearGradient2"><stop
         style="stop-color:#fdf1f1;stop-opacity:1;"
         offset="0"
         id="stop4" /><stop
         style="stop-color:#fdf1f1;stop-opacity:0;"
         offset="1"
         id="stop5" /></linearGradient><linearGradient
       id="linearGradient2-1"><stop
         style="stop-color:#0e0e0e;stop-opacity:1;"
         offset="0.04"
         id="stop2" /><stop
         style="stop-color:#fdf1f1;stop-opacity:0;"
         offset="1"
         id="stop3" /></linearGradient></defs><g
     inkscape:groupmode="layer"
     id="layer9"
     inkscape:label="wyczerpanie"
     style="display:inline"
     sodipodi:insensitive="true"><rect
       style="fill:#ecfcfe;fill-opacity:1;fill-rule:nonzero;stroke:#000000;stroke-width:0.3;stroke-linecap:round;stroke-dasharray:none;stroke-opacity:1"
       id="rect61"
       width="7.7668929"
       height="10.851711"
       x="26.116554"
       y="41.148289"
       ry="1.2067333"
       rx="1.5740411" /><rect
       style="fill:#d9ffe9;fill-opacity:1;fill-rule:nonzero;stroke:#000000;stroke-width:0.127816;stroke-linecap:round;stroke-dasharray:none;stroke-opacity:1"
       id="rect61-1"
       width="5.1583347"
       height="2.96593"
       x="27.544271"
       y="42.764057"
       ry="0.32981771"
       rx="1.0453898" /><rect
       style="fill:#da0000;fill-opacity:1;fill-rule:nonzero;stroke:#000000;stroke-width:0.1;stroke-linecap:round;stroke-dasharray:none;stroke-opacity:1"
       id="rect62"
       width="4.8888044"
       height="1.6648047"
       x="30.050192"
       y="41.672596"
       rx="0"
       ry="0" /><path
       style="fill:none;fill-opacity:1;fill-rule:nonzero;stroke:#000000;stroke-width:0.3;stroke-linecap:round;stroke-dasharray:none;stroke-opacity:1"
       d="m 27.000001,47.239888 c 0.0738,-0.03898 0.152025,-0.07053 0.221401,-0.11693 0.02898,-0.01939 0.02212,-0.06889 0.04677,-0.09354 0.0053,-0.0053 0.08553,-0.06749 0.09355,-0.07016 0.01479,-0.0049 0.03198,0.0049 0.04677,0 0.01045,-0.0035 0.01558,-0.01558 0.02339,-0.02339 0.01558,-0.0078 0.02986,-0.01916 0.04677,-0.02339 0.06343,-0.01585 0.178663,-0.0042 0.23386,0.02339 0.03844,0.01921 0.03853,0.08397 0.04677,0.116932 0.02601,0.10409 0.04968,0.273807 0.140316,0.304017 0.01876,0.0062 0.119915,0.05059 0.140317,0.02339 0.168788,-0.225052 -0.04274,0.01693 0.07016,-0.163703 0.02646,-0.04232 0.07122,-0.07228 0.09355,-0.11693 0.01045,-0.02093 -0.01045,-0.04924 0,-0.07016 0.0078,-0.01558 0.03445,-0.01106 0.04677,-0.02339 0.03428,-0.03428 0.04095,-0.101372 0.07016,-0.140316 0.04009,-0.05345 0.09314,-0.04637 0.11693,-0.07016 0.0055,-0.0055 -0.007,-0.0199 0,-0.02339 0.03486,-0.01744 0.07871,0.0076 0.11693,0 0.04918,-0.0098 0.176527,-0.05205 0.233862,-0.02339 0.0655,0.03275 0.08065,0.254836 0.11693,0.327403 0.04075,0.0815 0.126408,0.215215 0.210474,0.257249 0.01871,0.0093 0.05145,-0.0094 0.07016,0 0.0099,0.0049 0.01294,0.0199 0.02339,0.02339 0.03392,0.0113 0.3457,0.03763 0.374177,0.02339 0.0609,-0.03045 0.04349,-0.06359 0.07016,-0.11693 0.01257,-0.02514 0.0342,-0.04502 0.04677,-0.07016 0.0518,-0.103603 0.0681,-0.338072 0.187089,-0.397566 0.02119,-0.01061 0.09618,0 0.11693,0 0.01638,0 0.102442,-0.0072 0.11693,0 0.0056,0.0028 0.223142,0.194397 0.23386,0.210476 0.04727,0.0709 0.0746,0.250931 0.163703,0.280633 0.01479,0.0049 0.03283,-0.007 0.04677,0 0.01971,0.0099 0.02705,0.03691 0.04677,0.04677 0.05482,0.02741 0.149463,0.04982 0.210474,0.07016 0.03508,0.0117 0.02339,-0.02339 0.07016,0 0.007,0.0035 -0.0055,0.01789 0,0.02339 0.03323,0.03323 0.124783,-0.213151 0.140317,-0.23386 0.01045,-0.01394 0.03227,-0.01373 0.04677,-0.02339 0.05605,-0.03736 0.09869,-0.09093 0.163703,-0.11693 0.0713,-0.02852 0.148841,-0.03934 0.210476,-0.07016 0.01381,-0.0069 0.05444,0 0.07016,0 0.211479,0 0.16555,0.14401 0.233863,0.280633 0.03155,0.06311 0.01048,-7.94e-4 0.04677,0.02339 0.01558,0.01558 0.03118,0.03118 0.04677,0.04677 0,0.0078 -0.0055,0.01789 0,0.02339 0.01103,0.01103 0.03198,-0.0049 0.04677,0 0.01654,0.0055 0.03023,0.01789 0.04677,0.02339 0.01786,0.006 0.05119,0 0.07016,0 0.16433,0 0.129868,-0.166193 0.187087,-0.280633 0.0078,-0.01558 0.03898,-0.0078 0.04677,-0.02339 0.06236,-0.124725 -0.04677,-0.01169 0.02339,-0.04677 0.01558,-0.0078 0.0078,-0.03898 0.02339,-0.04677 0.01394,-0.007 0.03198,0.0049 0.04677,0 0.01045,-0.0035 0.01352,-0.01844 0.02339,-0.02339 0.01966,-0.0098 0.07995,-0.0098 0.09355,-0.02339 0.0055,-0.0055 -0.0055,-0.01789 0,-0.02339 0.01508,-0.01508 0.168481,-0.0062 0.187087,0 0.05549,0.0185 0.100875,0.27191 0.11693,0.30402 0.0099,0.01971 0.03454,0.02843 0.04677,0.04677 0.0094,0.01402 -0.01169,0.05846 0,0.07016 0.03297,0.03297 0.145031,0.03586 0.210476,0.04677 0.361381,0.06023 0.397563,-2.23e-4 0.397563,-0.380207"
       id="path62" /><path
       style="fill:none;fill-opacity:1;fill-rule:nonzero;stroke:#000000;stroke-width:0.3;stroke-linecap:round;stroke-dasharray:none;stroke-opacity:1"
       d="m 27.000001,48.759983 c 0.09718,0 0.194638,0.0072 0.291558,0 0.01101,-7.94e-4 0.01352,-0.01844 0.02339,-0.02339 0.06867,-0.03433 0.140316,-0.06236 0.210473,-0.09355 0.04304,-0.01913 0.367499,-0.04594 0.397566,-0.02339 0.02249,0.01685 0.0269,0.05028 0.04677,0.07016 0.115287,0.115287 0.425818,0.309308 0.608039,0.257246 0.135337,-0.03867 0.178187,-0.191915 0.30402,-0.23386 0.109244,-0.03641 0.514479,0.01558 0.654809,0 0.07143,-0.0079 0.1397,-0.03428 0.210476,-0.04677 0.06189,-0.01093 0.126116,-0.0081 0.187087,-0.02339 0.107762,-0.02694 0.184145,-0.09513 0.304019,-0.07016 0.15733,0.03278 0.310137,0.08541 0.467723,0.11693 0.223774,0.04475 0.451202,0.07006 0.678196,0.09354 0.270163,0.02795 0.546827,0.04677 0.818512,0.04677 0.104183,0 0.224385,0.01471 0.327406,0 0.06841,-0.0098 0.09075,-0.04648 0.09354,-0.02339 0.0078,0.06395 0,0.128829 0,0.193244"
       id="path63" /><path
       style="fill:none;fill-opacity:1;fill-rule:nonzero;stroke:#000000;stroke-width:0.3;stroke-linecap:round;stroke-dasharray:none;stroke-opacity:1"
       d="m 27.999999,49.999997 c -0.0024,-0.05475 -0.05268,-0.134196 -0.0069,-0.164253 0.0717,-0.04704 0.171497,0 0.257246,0 0.149585,0 0.298132,-0.01318 0.444336,0.02339 0.09936,0.02484 0.184938,0.08822 0.280633,0.11693 0.04542,0.01363 0.09457,0.0109 0.140316,0.02339 0.245446,0.06694 -0.02976,0.04632 0.30402,0.07016 0.31832,0.02273 0.458375,0.01363 0.748355,0.04677 0.26616,0.03042 0.528873,0.08735 0.795126,0.11693 0.05423,0.006 0.109135,0 0.163703,0 0.07016,0.0078 0.140594,0.01342 0.210476,0.02339 0.09388,0.01342 0.186055,0.03977 0.280633,0.04677 0.195681,0.0145 0.496022,0.01469 0.701582,0 0.110575,-0.0079 0.217088,-0.04677 0.327404,-0.04677"
       id="path64" /></g></svg>
