<?xml version="1.0" encoding="UTF-8" standalone="no"?>
<!-- Created with Inkscape (http://www.inkscape.org/) -->

<svg
   width="210mm"
   height="297mm"
   viewBox="0 0 210 297"
   version="1.1"
   id="svg1"
   inkscape:version="1.4.2 (f4327f4, 2025-05-13)"
   sodipodi:docname="ikonki — kopia (13).svg"
   xml:space="preserve"
   xmlns:inkscape="http://www.inkscape.org/namespaces/inkscape"
   xmlns:sodipodi="http://sodipodi.sourceforge.net/DTD/sodipodi-0.dtd"
   xmlns="http://www.w3.org/2000/svg"
   xmlns:svg="http://www.w3.org/2000/svg"><sodipodi:namedview
     id="namedview1"
     pagecolor="#ffffff"
     bordercolor="#000000"
     borderopacity="0.25"
     inkscape:showpageshadow="2"
     inkscape:pageopacity="0.0"
     inkscape:pagecheckerboard="0"
     inkscape:deskcolor="#d1d1d1"
     inkscape:document-units="mm"
     showgrid="true"
     inkscape:zoom="2.8284271"
     inkscape:cx="90.156115"
     inkscape:cy="179.42835"
     inkscape:window-width="1920"
     inkscape:window-height="1017"
     inkscape:window-x="-8"
     inkscape:window-y="-8"
     inkscape:window-maximized="1"
     inkscape:current-layer="layer12"><inkscape:grid
       id="grid1"
       units="mm"
       originx="0"
       originy="0"
       spacingx="0.99999998"
       spacingy="1"
       empcolor="#0099e5"
       empopacity="0.30196078"
       color="#0099e5"
       opacity="0.14901961"
       empspacing="5"
       enabled="true"
       visible="true" /></sodipodi:namedview><defs
     id="defs1"><clipPath
       clipPathUnits="userSpaceOnUse"
       id="clipPath54"><path
         id="path54"
         style="stroke-width:0.0999999;stroke-linecap:square;paint-order:markers fill stroke;stop-color:#000000"
         d="m 1691.1994,-792.32001 h 1634.8919 v 92.82806 H 1691.1994 Z" /></clipPath><clipPath
       clipPathUnits="userSpaceOnUse"
       id="clipPath25"><rect
         style="fill:#ff0000;stroke:none;stroke-width:3;stroke-linecap:square;stroke-linejoin:miter;paint-order:stroke markers fill;stop-color:#000000"
         id="rect25-8"
         width="78"
         height="45.033199"
         x="763.61322"
         y="452.82422" /></clipPath><clipPath
       clipPathUnits="userSpaceOnUse"
       id="clipPath33"><rect
         style="fill:#000000;stroke:none;stroke-width:0.999995;stroke-linecap:butt;stroke-linejoin:bevel;paint-order:stroke markers fill;stop-color:#000000"
         id="rect33"
         width="46.19186"
         height="80.006783"
         x="74.999985"
         y="399.99661" /></clipPath><linearGradient
       id="linearGradient11"><stop
         style="stop-color:#fdf1f1;stop-opacity:1;"
         offset="0"
         id="stop14" /><stop
         style="stop-color:#fdf1f1;stop-opacity:0;"
         offset="1"
         id="stop15" /></linearGradient><linearGradient
       id="linearGradient11-1"><stop
         style="stop-color:#000000;stop-opacity:1;"
         offset="0"
         id="stop12" /><stop
         style="stop-color:#fdf1f1;stop-opacity:0;"
         offset="1"
         id="stop13" /></linearGradient><linearGradient
       id="linearGradient2"><stop
         style="stop-color:#fdf1f1;stop-opacity:1;"
         offset="0"
         id="stop4" /><stop
         style="stop-color:#fdf1f1;stop-opacity:0;"
         offset="1"
         id="stop5" /></linearGradient><linearGradient
       id="linearGradient2-1"><stop
         style="stop-color:#0e0e0e;stop-opacity:1;"
         offset="0.04"
         id="stop2" /><stop
         style="stop-color:#fdf1f1;stop-opacity:0;"
         offset="1"
         id="stop3" /></linearGradient></defs><g
     inkscape:groupmode="layer"
     id="layer12"
     inkscape:label="zręczność"
     sodipodi:insensitive="true"><path
       id="rect7"
       style="display:inline;opacity:1;fill:#f7e9c1;fill-opacity:1;stroke:#000000;stroke-width:0.3;stroke-linecap:round"
       d="m 43.776758,56.18237 c 0,0 0.01443,-0.368209 0.171077,-0.576855 0.179579,-0.239199 0.487474,-0.22758 0.626925,0.0015 0.20052,0.329368 0.195792,1.981979 0.354875,2.480786 0.198833,0.623442 0.334983,1.502745 0.726067,1.582473 0.311358,0.06347 -0.08076,-1.027667 0.02478,-1.922186 0.0957,-0.811133 0.164909,-2.032218 0.403254,-2.569213 0.15127,-0.340812 0.523739,-0.183873 0.523739,-0.183873 0,0 0.189517,0.209026 0.231146,0.339428 0.158939,0.497866 -0.0284,1.249839 -0.01722,1.94685 0.02139,1.334083 -0.05948,2.55701 0.109392,2.620974 0.243721,0.09231 0.272201,-0.420429 0.398377,-1.05521 0.13298,-0.669007 0.301948,-1.407419 0.414681,-1.782087 0.09826,-0.326564 0.171698,-0.705586 0.250313,-0.855876 0.07674,-0.146703 0.268449,-0.277328 0.403243,-0.20855 0.152657,0.07789 0.354442,0.07266 0.161268,1.067939 -0.107364,0.55316 -0.15548,1.322617 -0.241448,2.051514 -0.07654,0.648949 -0.603917,1.425733 -0.158162,1.635617 0.426145,0.200651 0.251784,-0.170987 0.648489,-0.719847 0.225188,-0.311559 0.600459,-1.598632 0.900528,-1.894331 0.340192,-0.335238 0.549292,0.162971 0.576626,0.389148 0.02366,0.195792 -0.163244,0.552425 -0.163244,0.552425 l -0.565588,1.352618 -0.49389,0.857987 -0.243485,1.208549 -0.913275,3.176721 -0.285309,1.781114 -3.280814,0.0019 0.09217,-0.881625 c 0,0 -0.150534,-0.672728 -0.327917,-0.960988 -0.207969,-0.337969 -0.832515,-0.85099 -0.832515,-0.85099 0,0 -0.716846,-0.738264 -1.074128,-1.108498 -0.302389,-0.313351 -0.748161,-0.733758 -1.150443,-1.152359 -0.7822,-0.81393 -1.54913,-1.120228 -1.308225,-1.819469 0.130599,-0.379074 0.666574,-0.07659 0.981575,0.01198 1.03282,0.290404 2.243192,1.991128 2.767238,1.643733 0.896317,-0.594176 0.578799,-2.500358 0.411155,-3.946933 -0.152879,-1.319161 -0.12125,-2.214342 -0.12125,-2.214342 z"
       sodipodi:nodetypes="csssssscsssssssssssssccccccccscsssasscc" /><path
       style="display:inline;opacity:1;fill:none;stroke:#000000;stroke-width:0.3;stroke-linecap:round"
       d="m 48.666796,62.557421 c -1.401989,0.06332 -1.891838,-0.940248 -2.717481,-1.689728"
       id="path7"
       sodipodi:nodetypes="cc" /><path
       style="display:inline;opacity:1;fill:none;stroke:#000000;stroke-width:0.3;stroke-linecap:round"
       d="m 45.855598,64.971744 c 0,0 0.161715,-1.359366 -0.0161,-1.96568 -0.18069,-0.61613 -1.025699,-1.556586 -1.025699,-1.556586"
       id="path8"
       sodipodi:nodetypes="csc" /><path
       style="display:inline;opacity:1;fill:none;stroke:#000000;stroke-width:0.3;stroke-linecap:round"
       d="m 48.377165,63.824051 c 0,0 -1.089094,-0.604994 -1.556296,-1.010264 -0.459023,-0.398175 -1.198615,-1.373509 -1.198615,-1.373509"
       id="path9"
       sodipodi:nodetypes="cac" /><path
       style="display:inline;opacity:1;fill:none;stroke:#000000;stroke-width:0.3;stroke-linecap:round"
       d="m 47.740755,66.476562 c -0.415272,0.10279 -0.879853,-0.207747 -1.501945,-0.315537 -0.55127,-0.09552 -1.23376,0.03848 -2.003785,-0.279776"
       id="path10"
       sodipodi:nodetypes="csc" /></g></svg>
